<?xml version="1.0" standalone="no"?>
<!DOCTYPE svg PUBLIC "-//W3C//DTD SVG 20010904//EN"
 "http://www.w3.org/TR/2001/REC-SVG-20010904/DTD/svg10.dtd">
<svg version="1.0" xmlns="http://www.w3.org/2000/svg"
 width="79.000000pt" height="61.000000pt" viewBox="0 0 79.000000 61.000000"
 preserveAspectRatio="xMidYMid meet">

<g transform="translate(0.000000,61.000000) scale(0.100000,-0.100000)"
fill="#000000" stroke="none">
<path d="M56 585 c-18 -14 -16 -17 30 -59 l49 -45 -33 -27 c-18 -14 -48 -49
-67 -77 l-34 -51 22 -39 c32 -58 109 -124 183 -159 78 -36 207 -49 293 -28
l51 12 61 -53 c60 -52 60 -52 80 -33 19 20 17 22 -291 297 -170 152 -313 277
-318 277 -4 0 -16 -7 -26 -15z m211 -217 c13 -12 23 -32 23 -45 0 -52 48 -93
108 -93 27 0 82 -43 70 -55 -3 -3 -28 -8 -55 -12 -120 -14 -232 101 -194 200
13 33 18 33 48 5z"/>
<path d="M307 550 c-51 -10 -53 -14 -17 -43 25 -22 40 -26 83 -25 69 2 117
-15 154 -55 36 -37 52 -88 43 -133 -6 -29 -2 -35 41 -73 26 -22 52 -41 57 -41
14 0 78 73 97 110 22 42 9 75 -54 139 -97 100 -261 149 -404 121z"/>
<path d="M445 370 c40 -41 55 -49 55 -29 0 17 -57 69 -76 69 -14 0 -9 -10 21
-40z"/>
</g>
</svg>
