<?xml version="1.0" standalone="no"?>
<!DOCTYPE svg PUBLIC "-//W3C//DTD SVG 20010904//EN"
 "http://www.w3.org/TR/2001/REC-SVG-20010904/DTD/svg10.dtd">
<svg version="1.0" xmlns="http://www.w3.org/2000/svg"
 width="256.000000pt" height="256.000000pt" viewBox="0 0 256.000000 256.000000"
 preserveAspectRatio="xMidYMid meet">

<g transform="translate(0.000000,256.000000) scale(0.100000,-0.100000)"
fill="#000000" stroke="none">
<path d="M912 2195 c-100 -31 -155 -108 -154 -219 0 -119 47 -180 232 -301
119 -78 200 -150 200 -178 0 -8 -11 -24 -25 -37 -29 -27 -46 -74 -54 -150 l-6
-55 -45 -9 c-53 -10 -111 3 -161 36 -45 30 -98 136 -106 211 -5 47 -9 57 -24
57 -18 0 -19 -11 -19 -165 0 -165 8 -201 31 -135 14 38 32 38 100 3 45 -24 68
-29 150 -31 96 -4 97 -4 109 -32 20 -47 77 -99 197 -176 126 -83 187 -134 209
-177 20 -38 20 -137 0 -176 -43 -83 -173 -110 -274 -57 -60 31 -107 120 -127
239 -4 23 -11 37 -20 37 -13 0 -15 -27 -15 -160 0 -136 2 -160 15 -160 8 0 15
8 15 19 0 40 23 42 90 8 53 -26 79 -32 145 -35 97 -5 147 8 211 51 66 44 97
105 97 195 0 115 -45 183 -187 276 -45 29 -113 74 -152 99 -40 26 -79 59 -89
73 -16 25 -16 27 8 53 38 40 59 89 64 152 5 50 9 58 29 63 35 9 114 -12 151
-39 37 -29 79 -111 89 -172 4 -27 12 -43 20 -43 10 0 14 16 14 58 0 33 3 93 6
135 6 66 5 77 -9 77 -8 0 -20 -13 -26 -30 -5 -16 -13 -30 -16 -30 -4 0 -39 16
-78 35 -56 28 -83 35 -127 35 -56 0 -57 0 -74 39 -27 58 -96 118 -251 220
-164 107 -195 143 -195 226 0 59 25 106 72 136 27 16 46 19 104 17 59 -3 77
-8 107 -31 40 -31 84 -112 95 -177 5 -30 13 -45 22 -45 12 0 15 24 18 138 2
117 0 137 -13 137 -8 0 -15 -6 -15 -13 0 -7 -6 -21 -13 -31 -13 -18 -17 -17
-87 18 -61 30 -84 36 -134 35 -34 0 -80 -6 -104 -14z"/>
</g>
</svg>
